<svg width="154" height="154" viewBox="0 0 154 154" fill="none" xmlns="http://www.w3.org/2000/svg">
<rect width="154" height="154" rx="30" fill="#FF6C02"/>
<path d="M70.8503 31.6125L37.6003 56.55C34.8295 58.6558 33.167 61.9254 33.167 65.4166V115.292C33.167 121.387 38.1545 126.375 44.2503 126.375H110.75C116.846 126.375 121.834 121.387 121.834 115.292V65.4166C121.834 61.9254 120.171 58.6558 117.4 56.55L84.1503 31.6125C82.2283 30.1821 79.8962 29.4095 77.5003 29.4095C75.1044 29.4095 72.7724 30.1821 70.8503 31.6125V31.6125ZM80.2711 79.2708C80.2711 83.8704 76.5582 87.5833 71.9587 87.5833V106.979C71.9587 108.531 70.7395 109.75 69.1878 109.75C67.6362 109.75 66.417 108.531 66.417 106.979V87.5833C61.8174 87.5833 58.1045 83.8704 58.1045 79.2708V65.4166C58.1045 63.865 59.3237 62.6458 60.8753 62.6458C62.427 62.6458 63.6462 63.865 63.6462 65.4166V79.2708H66.417V65.4166C66.417 63.865 67.6362 62.6458 69.1878 62.6458C70.7395 62.6458 71.9587 63.865 71.9587 65.4166V79.2708H74.7295V65.4166C74.7295 63.865 75.9487 62.6458 77.5003 62.6458C79.052 62.6458 80.2711 63.865 80.2711 65.4166V79.2708ZM91.3545 109.75C89.8028 109.75 88.5836 108.531 88.5836 106.979V90.3541H85.8128C84.2611 90.3541 83.042 89.135 83.042 87.5833V73.7291C83.042 68.8525 86.2007 64.6962 90.5786 63.2554C92.2966 62.6458 94.1253 64.0312 94.1253 65.9154V106.979C94.1253 108.531 92.9061 109.75 91.3545 109.75Z" fill="white"/>
</svg>
