<svg width="1436" height="389" viewBox="0 0 1436 389" fill="none" xmlns="http://www.w3.org/2000/svg">
<g filter="url(#filter0_d)">
<path d="M559.25 116.5C577.75 116.5 593.917 120.167 607.75 127.5C621.583 134.833 632.25 145.167 639.75 158.5C647.417 171.667 651.25 186.917 651.25 204.25C651.25 221.417 647.417 236.667 639.75 250C632.25 263.333 621.5 273.667 607.5 281C593.667 288.333 577.583 292 559.25 292H493.5V116.5H559.25ZM556.5 255C572.667 255 585.25 250.583 594.25 241.75C603.25 232.917 607.75 220.417 607.75 204.25C607.75 188.083 603.25 175.5 594.25 166.5C585.25 157.5 572.667 153 556.5 153H536.25V255H556.5ZM696.641 138C689.141 138 682.974 135.833 678.141 131.5C673.474 127 671.141 121.5 671.141 115C671.141 108.333 673.474 102.833 678.141 98.5C682.974 94 689.141 91.75 696.641 91.75C703.974 91.75 709.974 94 714.641 98.5C719.474 102.833 721.891 108.333 721.891 115C721.891 121.5 719.474 127 714.641 131.5C709.974 135.833 703.974 138 696.641 138ZM717.891 152.5V292H675.141V152.5H717.891ZM880.371 220C880.371 224 880.121 228.167 879.621 232.5H782.871C783.538 241.167 786.288 247.833 791.121 252.5C796.121 257 802.204 259.25 809.371 259.25C820.038 259.25 827.454 254.75 831.621 245.75H877.121C874.788 254.917 870.538 263.167 864.371 270.5C858.371 277.833 850.788 283.583 841.621 287.75C832.454 291.917 822.204 294 810.871 294C797.204 294 785.038 291.083 774.371 285.25C763.704 279.417 755.371 271.083 749.371 260.25C743.371 249.417 740.371 236.75 740.371 222.25C740.371 207.75 743.288 195.083 749.121 184.25C755.121 173.417 763.454 165.083 774.121 159.25C784.788 153.417 797.038 150.5 810.871 150.5C824.371 150.5 836.371 153.333 846.871 159C857.371 164.667 865.538 172.75 871.371 183.25C877.371 193.75 880.371 206 880.371 220ZM836.621 208.75C836.621 201.417 834.121 195.583 829.121 191.25C824.121 186.917 817.871 184.75 810.371 184.75C803.204 184.75 797.121 186.833 792.121 191C787.288 195.167 784.288 201.083 783.121 208.75H836.621ZM980.674 255.75V292H958.924C943.424 292 931.34 288.25 922.674 280.75C914.007 273.083 909.674 260.667 909.674 243.5V188H892.674V152.5H909.674V118.5H952.424V152.5H980.424V188H952.424V244C952.424 248.167 953.424 251.167 955.424 253C957.424 254.833 960.757 255.75 965.424 255.75H980.674ZM1025.99 138C1018.49 138 1012.32 135.833 1007.49 131.5C1002.82 127 1000.49 121.5 1000.49 115C1000.49 108.333 1002.82 102.833 1007.49 98.5C1012.32 94 1018.49 91.75 1025.99 91.75C1033.32 91.75 1039.32 94 1043.99 98.5C1048.82 102.833 1051.24 108.333 1051.24 115C1051.24 121.5 1048.82 127 1043.99 131.5C1039.32 135.833 1033.32 138 1025.99 138ZM1047.24 152.5V292H1004.49V152.5H1047.24ZM1163.22 151C1179.55 151 1192.55 156.333 1202.22 167C1212.05 177.5 1216.97 192 1216.97 210.5V292H1174.47V216.25C1174.47 206.917 1172.05 199.667 1167.22 194.5C1162.38 189.333 1155.88 186.75 1147.72 186.75C1139.55 186.75 1133.05 189.333 1128.22 194.5C1123.38 199.667 1120.97 206.917 1120.97 216.25V292H1078.22V152.5H1120.97V171C1125.3 164.833 1131.13 160 1138.47 156.5C1145.8 152.833 1154.05 151 1163.22 151ZM1378.17 220C1378.17 224 1377.92 228.167 1377.42 232.5H1280.67C1281.34 241.167 1284.09 247.833 1288.92 252.5C1293.92 257 1300.01 259.25 1307.17 259.25C1317.84 259.25 1325.26 254.75 1329.42 245.75H1374.92C1372.59 254.917 1368.34 263.167 1362.17 270.5C1356.17 277.833 1348.59 283.583 1339.42 287.75C1330.26 291.917 1320.01 294 1308.67 294C1295.01 294 1282.84 291.083 1272.17 285.25C1261.51 279.417 1253.17 271.083 1247.17 260.25C1241.17 249.417 1238.17 236.75 1238.17 222.25C1238.17 207.75 1241.09 195.083 1246.92 184.25C1252.92 173.417 1261.26 165.083 1271.92 159.25C1282.59 153.417 1294.84 150.5 1308.67 150.5C1322.17 150.5 1334.17 153.333 1344.67 159C1355.17 164.667 1363.34 172.75 1369.17 183.25C1375.17 193.75 1378.17 206 1378.17 220ZM1334.42 208.75C1334.42 201.417 1331.92 195.583 1326.92 191.25C1321.92 186.917 1315.67 184.75 1308.17 184.75C1301.01 184.75 1294.92 186.833 1289.92 191C1285.09 195.167 1282.09 201.083 1280.92 208.75H1334.42Z" fill="#1E266D"/>
<rect x="4" width="380.169" height="380.169" rx="59" fill="#FF6C02"/>
<path d="M178.903 78.0394L96.8212 139.601C89.9811 144.799 85.877 152.871 85.877 161.489V284.612C85.877 299.661 98.1892 311.973 113.238 311.973H277.401C292.45 311.973 304.762 299.661 304.762 284.612V161.489C304.762 152.871 300.658 144.799 293.818 139.601L211.736 78.0394C206.991 74.5083 201.234 72.6013 195.32 72.6013C189.405 72.6013 183.648 74.5083 178.903 78.0394V78.0394ZM202.16 195.69C202.16 207.045 192.994 216.211 181.639 216.211V264.092C181.639 267.922 178.63 270.932 174.799 270.932C170.969 270.932 167.959 267.922 167.959 264.092V216.211C156.604 216.211 147.438 207.045 147.438 195.69V161.489C147.438 157.659 150.448 154.649 154.279 154.649C158.109 154.649 161.119 157.659 161.119 161.489V195.69H167.959V161.489C167.959 157.659 170.969 154.649 174.799 154.649C178.63 154.649 181.639 157.659 181.639 161.489V195.69H188.479V161.489C188.479 157.659 191.489 154.649 195.32 154.649C199.15 154.649 202.16 157.659 202.16 161.489V195.69ZM229.52 270.932C225.69 270.932 222.68 267.922 222.68 264.092V223.051H215.84C212.009 223.051 209 220.041 209 216.211V182.01C209 169.971 216.798 159.711 227.605 156.154C231.846 154.649 236.36 158.069 236.36 162.721V264.092C236.36 267.922 233.351 270.932 229.52 270.932Z" fill="white"/>
</g>
<defs>
<filter id="filter0_d" x="0" y="0" width="1382.17" height="388.169" filterUnits="userSpaceOnUse" color-interpolation-filters="sRGB">
<feFlood flood-opacity="0" result="BackgroundImageFix"/>
<feColorMatrix in="SourceAlpha" type="matrix" values="0 0 0 0 0 0 0 0 0 0 0 0 0 0 0 0 0 0 127 0"/>
<feOffset dy="4"/>
<feGaussianBlur stdDeviation="2"/>
<feColorMatrix type="matrix" values="0 0 0 0 0 0 0 0 0 0 0 0 0 0 0 0 0 0 0.25 0"/>
<feBlend mode="normal" in2="BackgroundImageFix" result="effect1_dropShadow"/>
<feBlend mode="normal" in="SourceGraphic" in2="effect1_dropShadow" result="shape"/>
</filter>
</defs>
</svg>
